<?xml version="1.0" standalone="no"?>
<!DOCTYPE svg PUBLIC "-//W3C//DTD SVG 20010904//EN"
 "http://www.w3.org/TR/2001/REC-SVG-20010904/DTD/svg10.dtd">
<svg version="1.0" xmlns="http://www.w3.org/2000/svg"
 width="1100.000000pt" height="1100.000000pt" viewBox="0 0 1100.000000 1100.000000"
 preserveAspectRatio="xMidYMid meet">
<metadata>
Created by potrace 1.11, written by Peter Selinger 2001-2013
</metadata>
<g transform="translate(0.000000,1100.000000) scale(0.100000,-0.100000)"
fill="#000000" stroke="none">
<path d="M4483 8555 c-285 -76 -502 -290 -573 -565 -32 -119 -26 -303 11 -416
2 -6 -32 -49 -76 -95 -298 -311 -540 -669 -635 -939 -13 -36 -28 -70 -34 -76
-6 -7 -36 -14 -66 -17 -223 -23 -513 -120 -705 -235 -183 -109 -355 -274 -457
-437 -126 -202 -238 -541 -273 -825 -3 -25 -8 -61 -11 -80 -6 -43 -5 -314 1
-355 3 -16 7 -52 10 -79 6 -58 33 -183 45 -212 6 -17 -3 -33 -50 -89 -153
-181 -218 -394 -185 -605 19 -115 91 -285 164 -383 95 -129 252 -232 416 -272
95 -23 293 -28 364 -9 127 34 253 104 350 194 25 22 51 38 58 36 12 -5 93 -27
158 -43 141 -35 296 -51 570 -59 282 -8 1735 -2 1792 7 30 5 41 -6 57 -58 75
-240 272 -441 501 -513 90 -29 277 -35 380 -13 213 45 394 169 500 342 38 64
84 169 92 211 2 14 7 28 11 31 4 4 189 10 412 13 223 4 432 8 465 11 33 2 98
6 145 9 47 3 103 8 125 10 37 4 44 1 102 -54 165 -153 332 -223 538 -224 194
0 352 64 498 203 100 95 174 211 223 347 25 70 28 93 28 204 0 144 -3 170 -38
270 -30 85 -80 179 -136 254 -39 54 -39 54 -33 127 7 96 7 360 0 424 -3 28 -9
75 -12 105 -3 30 -8 66 -11 80 -3 14 -8 35 -10 48 -48 266 -150 519 -306 752
-96 143 -123 176 -272 325 -145 144 -277 245 -469 359 -49 29 -236 121 -289
142 -30 12 -48 25 -48 35 0 9 -12 61 -26 115 -14 55 -27 106 -29 114 -2 8 -20
60 -40 115 -168 462 -499 823 -976 1061 -244 122 -502 203 -820 258 -81 14
-113 19 -214 31 -54 6 -204 16 -293 19 l-73 3 -20 38 c-57 106 -133 192 -224
255 -173 119 -408 160 -612 105z m297 -442 c89 -33 150 -90 192 -181 24 -50
30 -75 30 -130 -1 -72 -4 -97 -15 -108 -4 -4 -7 -14 -7 -22 0 -8 -17 -41 -39
-73 -33 -49 -37 -60 -26 -76 7 -10 28 -47 48 -83 19 -36 63 -114 97 -175 34
-60 78 -139 98 -175 19 -36 157 -283 305 -550 148 -267 283 -510 300 -540 107
-197 129 -231 147 -225 140 44 352 54 465 20 203 -60 350 -187 453 -391 85
-169 97 -361 32 -548 l-18 -55 116 -73 c64 -40 124 -77 134 -83 16 -9 300
-186 438 -273 30 -19 71 -45 90 -57 19 -12 96 -60 170 -105 74 -46 158 -98
185 -115 52 -34 311 -195 368 -230 18 -11 54 -33 79 -48 l47 -28 38 25 c113
75 275 74 388 -3 22 -15 57 -49 77 -76 128 -169 75 -404 -112 -504 -153 -82
-352 -34 -449 109 -44 64 -54 102 -55 204 l-1 89 -300 189 c-165 103 -309 193
-320 198 -21 10 -52 29 -69 43 -6 4 -69 44 -141 88 -71 43 -137 84 -145 89
-81 55 -628 390 -635 390 -6 0 -29 -18 -50 -41 -94 -97 -242 -178 -387 -210
l-58 -12 -1 -306 c0 -168 -1 -362 -2 -430 l-2 -123 58 -30 c178 -89 248 -276
170 -451 -88 -198 -351 -260 -527 -126 -87 67 -130 159 -130 275 1 126 74 239
192 297 41 20 42 22 43 71 9 748 8 825 -9 830 -10 3 -44 13 -76 21 -196 51
-365 192 -462 385 -20 40 -37 78 -38 84 -1 6 -5 20 -9 31 -3 11 -8 31 -11 45
-7 43 -11 55 -18 60 -5 4 -1370 5 -1403 1 -5 -1 -18 -21 -28 -46 -27 -64 -87
-127 -157 -164 -83 -44 -176 -52 -270 -22 l-65 21 -85 -88 c-79 -83 -286 -302
-360 -382 -18 -19 -98 -104 -179 -189 -177 -187 -193 -204 -253 -269 l-47 -50
20 -58 c59 -166 -16 -342 -179 -421 -49 -24 -69 -27 -147 -27 -79 0 -97 4
-148 29 -68 34 -140 107 -170 173 -33 71 -31 198 4 273 33 70 90 131 155 163
92 46 164 51 274 20 l54 -16 71 74 c101 106 231 244 375 397 69 74 148 157
175 186 28 29 105 110 172 181 66 71 123 131 126 134 3 3 -2 34 -12 70 -39
139 -5 260 97 352 71 64 137 88 241 90 118 1 238 -74 301 -190 l26 -46 695 -1
c382 0 701 1 709 3 10 2 23 29 34 75 34 130 111 256 220 358 l49 45 -494 888
-494 889 -81 2 c-62 1 -93 8 -136 27 -185 85 -257 296 -163 478 39 75 153 157
234 167 20 3 37 6 39 8 9 8 112 -7 152 -22z m780 -297 c47 -4 101 -10 120 -12
19 -3 53 -7 75 -9 22 -2 69 -9 105 -16 36 -6 74 -13 85 -15 98 -15 361 -91
466 -134 511 -208 831 -521 993 -970 30 -82 61 -194 71 -256 l6 -41 -38 -7
c-81 -13 -101 -18 -184 -46 -135 -45 -304 -145 -378 -224 -30 -32 -30 -32 51
-2 36 13 83 27 104 31 22 5 46 10 54 11 87 19 266 23 383 11 72 -8 229 -47
327 -83 272 -97 567 -325 762 -587 65 -88 155 -245 188 -327 12 -30 28 -69 36
-85 17 -39 70 -228 78 -280 26 -157 31 -226 31 -400 -1 -142 -7 -261 -19 -320
-2 -11 -10 -19 -17 -17 -117 28 -237 26 -333 -7 l-58 -21 -164 103 c-89 56
-172 106 -183 112 -12 5 -21 13 -21 17 0 5 -4 8 -9 8 -5 0 -49 25 -98 56 -48
30 -97 61 -108 67 -11 7 -33 21 -50 32 -16 11 -39 25 -50 31 -11 6 -177 109
-368 228 l-348 218 6 37 c13 78 15 109 15 181 0 92 -4 124 -29 223 -41 157
-126 303 -250 427 -201 200 -451 282 -761 247 l-66 -7 -94 172 c-52 94 -110
199 -129 232 -19 34 -44 79 -56 101 -12 22 -53 96 -92 165 -38 69 -83 150
-100 180 -16 30 -95 172 -175 315 -79 143 -159 287 -177 319 l-32 59 20 48
c26 60 48 155 45 194 -1 17 4 35 11 40 14 11 223 12 355 1z m-1250 -428 c3 -4
32 -23 64 -42 62 -37 159 -73 215 -79 27 -2 38 -11 56 -43 34 -61 69 -124 105
-189 18 -33 36 -64 40 -70 4 -5 25 -44 47 -85 22 -41 53 -97 69 -125 130 -232
244 -438 244 -442 0 -2 10 -20 23 -41 13 -20 42 -71 64 -112 22 -41 51 -93 63
-115 74 -131 180 -324 180 -329 0 -4 -18 -30 -40 -58 -50 -62 -111 -167 -134
-229 l-18 -46 -575 0 -576 0 -71 72 c-52 53 -91 82 -146 108 -89 43 -109 48
-220 54 -154 9 -286 -43 -401 -157 -71 -70 -130 -176 -145 -260 -10 -56 -12
-167 -4 -199 5 -19 -1 -32 -24 -56 -17 -18 -89 -94 -161 -170 -184 -195 -185
-197 -336 -356 -75 -79 -161 -169 -190 -200 l-54 -56 -65 6 c-38 4 -94 1 -135
-6 -38 -7 -71 -13 -72 -13 -14 0 -79 174 -89 237 -3 21 -8 41 -9 44 -10 15
-19 158 -18 274 0 124 5 187 20 265 3 19 7 44 8 55 9 76 88 330 145 460 30 69
119 200 177 261 225 235 591 378 968 378 107 0 225 -11 300 -28 17 -3 39 -8
50 -11 184 -41 381 -140 513 -259 28 -26 52 -45 52 -42 0 15 -62 126 -102 182
-131 187 -328 331 -550 404 -38 12 -68 23 -68 25 0 9 45 108 81 180 121 238
295 469 548 728 122 125 125 127 145 110 12 -10 23 -21 26 -25z m977 -2587
c17 -50 91 -193 123 -236 107 -144 273 -273 413 -321 l44 -15 -1 -304 -2 -303
-75 -74 c-52 -51 -84 -93 -107 -140 l-33 -68 -47 -1 c-26 0 -97 -2 -158 -4
-409 -15 -1387 -21 -1779 -11 -322 8 -370 11 -515 33 -54 8 -259 69 -312 93
-51 22 -53 27 -38 80 12 40 15 172 5 211 -7 28 -19 13 185 229 76 80 154 163
175 185 20 22 92 99 160 170 67 72 145 155 173 185 l51 55 123 1 c106 2 132 5
191 28 105 39 224 132 269 211 6 9 134 12 579 12 512 0 571 -2 576 -16z m1792
-595 c152 -95 321 -200 376 -235 55 -34 109 -68 120 -74 10 -7 52 -33 91 -58
40 -26 76 -48 81 -50 5 -2 99 -60 208 -128 110 -69 201 -125 201 -125 1 -1 5
-27 8 -59 4 -32 10 -65 13 -73 3 -9 -2 -14 -18 -15 -13 -1 -33 -3 -44 -4 -74
-9 -234 -23 -370 -32 -33 -2 -289 -6 -568 -9 l-508 -5 -15 38 c-33 78 -104
165 -179 219 l-40 29 2 170 c1 94 2 227 3 296 l1 126 79 32 c76 31 220 117
234 140 9 14 -4 22 325 -183z"/>
<path d="M6051 5514 c-266 -70 -405 -356 -291 -602 57 -122 197 -231 318 -247
26 -3 59 -8 73 -10 15 -1 54 3 86 9 144 30 259 118 318 241 114 237 -2 510
-255 600 -61 22 -183 26 -249 9z"/>
</g>
</svg>
