<svg width="12" height="12" viewBox="0 0 12 12" fill="none" xmlns="http://www.w3.org/2000/svg">
    <path d="M7.3125 0.3125C4.90112 0.3125 2.9375 2.27612 2.9375 4.6875C2.9375 5.73511 3.30493 6.69556 3.92188 7.44922L0.435547 10.9355L1.06445 11.5645L4.55078 8.07812C5.30444 8.69507 6.26489 9.0625 7.3125 9.0625C9.72388 9.0625 11.6875 7.09888 11.6875 4.6875C11.6875 2.27612 9.72388 0.3125 7.3125 0.3125ZM7.3125 1.1875C9.25049 1.1875 10.8125 2.74951 10.8125 4.6875C10.8125 6.62549 9.25049 8.1875 7.3125 8.1875C5.37451 8.1875 3.8125 6.62549 3.8125 4.6875C3.8125 2.74951 5.37451 1.1875 7.3125 1.1875Z" fill="#BEC0D7" fill-opacity="0.74"/>
</svg>
