<svg width="20" height="20" viewBox="0 0 20 20" fill="none" xmlns="http://www.w3.org/2000/svg">
    <path d="M9.99998 0.833344C4.93723 0.833344 0.833313 4.93726 0.833313 10C0.833313 15.0628 4.93723 19.1667 9.99998 19.1667C15.0627 19.1667 19.1666 15.0628 19.1666 10C19.1666 4.93726 15.0627 0.833344 9.99998 0.833344ZM9.99998 2.66668C14.0498 2.66668 17.3333 5.95018 17.3333 10C17.3333 11.4642 16.8983 12.8244 16.1588 13.9692L15.4534 13.4232C14.0308 12.3259 11.4089 11.8333 9.99998 11.8333C8.59106 11.8333 5.96828 12.3259 4.54653 13.4232L3.84113 13.971C3.10119 12.8259 2.66665 11.4647 2.66665 10C2.66665 5.95018 5.95015 2.66668 9.99998 2.66668ZM9.99998 4.27084C8.35731 4.27084 7.02081 5.60734 7.02081 7.25001C7.02081 8.89268 8.35731 10.2292 9.99998 10.2292C11.6426 10.2292 12.9791 8.89268 12.9791 7.25001C12.9791 5.60734 11.6426 4.27084 9.99998 4.27084ZM9.99998 6.10418C10.6316 6.10418 11.1458 6.61843 11.1458 7.25001C11.1458 7.88159 10.6316 8.39584 9.99998 8.39584C9.3684 8.39584 8.85415 7.88159 8.85415 7.25001C8.85415 6.61843 9.3684 6.10418 9.99998 6.10418ZM9.99998 13.6667C12.8423 13.6667 14.3707 14.7378 15.0864 15.2744C13.7675 16.5467 11.9771 17.3333 9.99998 17.3333C8.02287 17.3333 6.2325 16.5467 4.91355 15.2744C5.62923 14.7378 7.15766 13.6667 9.99998 13.6667ZM4.55011 14.8949C4.661 15.017 4.77248 15.1387 4.89028 15.2529C4.77233 15.1382 4.66015 15.0173 4.55011 14.8949ZM15.4194 14.9271C15.3189 15.0376 15.2185 15.1488 15.1115 15.2529C15.2182 15.1494 15.318 15.0371 15.4194 14.9271Z" fill="white"/>
</svg>
