<svg width="18" height="14" viewBox="0 0 18 14" fill="none" xmlns="http://www.w3.org/2000/svg">
    <path d="M16.0714 0.571442H1.92857C0.863449 0.571442 0 1.43489 0 2.50001V11.5C0 12.5651 0.863449 13.4286 1.92857 13.4286H16.0714C17.1365 13.4286 18 12.5651 18 11.5V2.50001C18 1.43489 17.1365 0.571442 16.0714 0.571442ZM16.7143 11.5C16.7143 11.855 16.4264 12.1429 16.0714 12.1429H1.92857C1.57352 12.1429 1.2857 11.855 1.2857 11.5V7.64285H16.7143V11.5ZM16.7143 6.35715H1.2857V5.07145H16.7143V6.35715ZM16.7143 3.78571H1.2857V2.50001C1.2857 2.14496 1.57352 1.85714 1.92857 1.85714H16.0714C16.4265 1.85714 16.7143 2.14496 16.7143 2.50001V3.78571H16.7143Z" fill="white"/>
</svg>
