<svg width="24" height="25" viewBox="0 0 24 25" fill="none" xmlns="http://www.w3.org/2000/svg">
<path d="M15.4695 12.0126C15.0789 11.6221 14.4458 11.6221 14.0553 12.0126C13.6647 12.4031 13.6647 13.0363 14.0553 13.4268C14.4458 13.8173 15.0789 13.8173 15.4695 13.4268C15.86 13.0363 15.86 12.4031 15.4695 12.0126Z" fill="#EAEDF3"/>
<path d="M16.1765 9.89123C16.567 9.5007 17.2002 9.5007 17.5907 9.89123C17.9812 10.2817 17.9812 10.9149 17.5907 11.3055C17.2002 11.696 16.567 11.696 16.1765 11.3055C15.786 10.9149 15.786 10.2817 16.1765 9.89123Z" fill="#EAEDF3"/>
<path d="M19.7121 12.0126C19.3216 11.6221 18.6885 11.6221 18.2979 12.0126C17.9074 12.4031 17.9074 13.0363 18.2979 13.4268C18.6885 13.8173 19.3216 13.8173 19.7121 13.4268C20.1027 13.0363 20.1027 12.4031 19.7121 12.0126Z" fill="#EAEDF3"/>
<path d="M16.1765 14.1339C16.567 13.7434 17.2002 13.7434 17.5907 14.1339C17.9812 14.5245 17.9812 15.1576 17.5907 15.5481C17.2002 15.9387 16.567 15.9387 16.1765 15.5481C15.786 15.1576 15.786 14.5245 16.1765 14.1339Z" fill="#EAEDF3"/>
<path d="M6 13.7197H4V11.7197H6V9.71967H8V11.7197H10V13.7197H8V15.7197H6V13.7197Z" fill="#EAEDF3"/>
<path fill-rule="evenodd" clip-rule="evenodd" d="M7 5.71967C3.13401 5.71967 0 8.85368 0 12.7197C0 16.5857 3.13401 19.7197 7 19.7197H17C20.866 19.7197 24 16.5857 24 12.7197C24 8.85368 20.866 5.71967 17 5.71967H7ZM17 7.71967H7C4.23858 7.71967 2 9.95825 2 12.7197C2 15.4811 4.23858 17.7197 7 17.7197H17C19.7614 17.7197 22 15.4811 22 12.7197C22 9.95825 19.7614 7.71967 17 7.71967Z" fill="#EAEDF3"/>
</svg>
