<svg width="20" height="20" viewBox="0 0 20 20" fill="none" xmlns="http://www.w3.org/2000/svg">
    <path d="M19.2687 13.57C19.164 13.1729 18.9813 12.8005 18.7313 12.4747C18.4813 12.1488 18.169 11.8759 17.8125 11.6719C17.6931 11.6053 17.5695 11.5464 17.4425 11.4956C17.6383 9.92102 17.324 8.32512 16.5459 6.94227C15.7678 5.55942 14.5669 4.46247 13.1194 3.8125C13.1194 3.79125 13.125 3.775 13.125 3.75312C13.1252 3.34274 13.0446 2.93634 12.8877 2.55712C12.7309 2.1779 12.5008 1.83329 12.2108 1.54296C11.9208 1.25263 11.5764 1.02227 11.1973 0.865037C10.8183 0.707801 10.4119 0.626768 10.0016 0.626563C9.17276 0.626148 8.37774 0.954991 7.79139 1.54075C7.20505 2.12651 6.87541 2.9212 6.875 3.75C6.875 3.77125 6.875 3.79 6.875 3.8125C5.4273 4.46325 4.22643 5.56109 3.44876 6.94476C2.67109 8.32843 2.35762 9.92501 2.55437 11.5C2.42784 11.5504 2.30467 11.6088 2.18562 11.675C1.65241 11.9852 1.22294 12.4463 0.951324 13.0002C0.67971 13.5541 0.578102 14.1759 0.659304 14.7875C0.740507 15.399 1.00089 15.9728 1.40763 16.4366C1.81438 16.9004 2.3493 17.2334 2.945 17.3938C3.21005 17.4645 3.48317 17.5004 3.7575 17.5006C4.30394 17.5006 4.84056 17.3555 5.3125 17.08C5.45932 16.9947 5.59876 16.8973 5.72937 16.7888C6.98453 17.659 8.47547 18.1253 10.0028 18.1253C11.5302 18.1253 13.0211 17.659 14.2762 16.7888C14.405 16.8969 14.5428 16.9937 14.6881 17.0781C15.1622 17.3553 15.7015 17.5013 16.2506 17.5013C16.525 17.5011 16.7981 17.4652 17.0631 17.3944C17.8632 17.18 18.5455 16.657 18.9605 15.9402C19.3755 15.2234 19.4893 14.3712 19.2769 13.5706L19.2687 13.57ZM10 1.875C10.4973 1.875 10.9742 2.07254 11.3258 2.42417C11.6775 2.77581 11.875 3.25272 11.875 3.75C11.8763 3.86568 11.865 3.98115 11.8412 4.09437C11.7591 4.52478 11.5287 4.9128 11.1903 5.19107C10.8518 5.46935 10.4266 5.62029 9.9884 5.61769C9.55023 5.61509 9.12681 5.45911 8.79166 5.17685C8.45652 4.89458 8.23081 4.50384 8.15375 4.0725C8.13284 3.96631 8.12321 3.85821 8.125 3.75C8.125 3.25272 8.32254 2.77581 8.67417 2.42417C9.0258 2.07254 9.50272 1.875 10 1.875V1.875ZM4.6875 16C4.47407 16.1346 4.23568 16.2247 3.9866 16.265C3.73752 16.3052 3.48287 16.2948 3.23791 16.2343C2.99296 16.1738 2.76273 16.0645 2.56102 15.9129C2.35931 15.7614 2.19026 15.5706 2.06401 15.3522C1.93776 15.1337 1.8569 14.892 1.82627 14.6416C1.79564 14.3911 1.81588 14.1371 1.88576 13.8946C1.95565 13.6522 2.07375 13.4264 2.23299 13.2306C2.39223 13.0349 2.58934 12.8734 2.8125 12.7556C2.9878 12.6525 3.1799 12.5809 3.38 12.5444C3.49608 12.521 3.6141 12.5087 3.7325 12.5075C3.75812 12.5075 3.78312 12.5075 3.80875 12.5075C4.10141 12.5145 4.38815 12.5914 4.645 12.7319C4.66687 12.7438 4.68875 12.755 4.7075 12.7675C4.82809 12.84 4.94006 12.926 5.04125 13.0238C5.06 13.0419 5.07687 13.0619 5.095 13.0806C5.19979 13.1884 5.29147 13.3082 5.36812 13.4375C5.55936 13.7682 5.64458 14.1496 5.61228 14.5303C5.57998 14.9109 5.43172 15.2725 5.1875 15.5663L5.17875 15.5769C5.0429 15.7474 4.87627 15.8909 4.6875 16V16ZM10 16.875C8.75935 16.8805 7.54573 16.5127 6.51687 15.8194C6.54625 15.7631 6.56812 15.7038 6.59375 15.6456C6.61437 15.6 6.63687 15.555 6.65625 15.5087C6.7028 15.3894 6.74183 15.2673 6.77312 15.1431C6.7775 15.1275 6.78375 15.1125 6.7875 15.0963C6.82038 14.9553 6.84335 14.8123 6.85625 14.6681C6.86062 14.6263 6.86 14.585 6.86187 14.5431C6.86725 14.439 6.86725 14.3347 6.86187 14.2306C6.86187 14.1794 6.855 14.1288 6.85 14.0775C6.84125 13.9819 6.8275 13.89 6.81 13.7919C6.8 13.74 6.79062 13.6894 6.77812 13.6381C6.75437 13.5394 6.72375 13.4425 6.69062 13.3456C6.675 13.3019 6.6625 13.2581 6.64562 13.2156C6.59119 13.0763 6.52664 12.9412 6.4525 12.8112C6.37492 12.6777 6.2876 12.5501 6.19125 12.4294C6.15875 12.3887 6.12312 12.3519 6.08875 12.3125C6.02625 12.2375 5.95625 12.165 5.885 12.0975C5.83937 12.0544 5.7925 12.015 5.74562 11.9725C5.67937 11.9175 5.6125 11.865 5.5425 11.8163C5.48687 11.7769 5.43125 11.7381 5.37312 11.7025C5.315 11.6669 5.24187 11.6281 5.17437 11.5938C5.10687 11.5594 5.0425 11.5238 4.97375 11.4944C4.92125 11.4713 4.86562 11.455 4.81125 11.4356C4.6353 11.3709 4.45367 11.3228 4.26875 11.2919C4.2375 11.2869 4.20625 11.2781 4.17625 11.2744C4.08687 11.2619 3.99687 11.2594 3.90625 11.255C3.86375 11.255 3.8225 11.2463 3.78125 11.2463C3.76046 11.0398 3.75003 10.8325 3.75 10.625C3.75289 9.47331 4.07277 8.34463 4.67459 7.36269C5.27642 6.38074 6.13695 5.58343 7.16187 5.05813C7.19062 5.12063 7.22875 5.17875 7.26125 5.23938C7.28812 5.28875 7.31312 5.33938 7.3425 5.38688C7.41296 5.50152 7.49127 5.61116 7.57687 5.715C7.59562 5.73875 7.61125 5.765 7.63125 5.7875C7.73815 5.91139 7.85477 6.02654 7.98 6.13187C8.01437 6.16187 8.05312 6.18625 8.08937 6.21437C8.18256 6.28751 8.27979 6.35533 8.38062 6.4175C8.43062 6.44812 8.4825 6.475 8.535 6.5025C8.63023 6.55385 8.72831 6.59976 8.82875 6.64C8.885 6.66312 8.94062 6.685 8.99875 6.7025C9.10763 6.73843 9.21842 6.76827 9.33062 6.79187C9.38312 6.80375 9.43437 6.81813 9.48812 6.82688C9.65711 6.85715 9.82833 6.87325 10 6.875C10.1714 6.874 10.3423 6.85895 10.5112 6.83C10.5662 6.82063 10.6181 6.80562 10.6719 6.79375C10.7824 6.77056 10.8915 6.74114 10.9987 6.70562C11.0612 6.68562 11.1175 6.6625 11.1769 6.63813C11.2719 6.59938 11.3644 6.55625 11.4544 6.50875C11.5131 6.47812 11.5712 6.44625 11.6281 6.41312C11.7137 6.36062 11.7944 6.30188 11.8744 6.24188C11.9269 6.2025 11.9806 6.16687 12.0306 6.12437C12.1264 6.04101 12.217 5.95189 12.3019 5.8575C12.3699 5.78213 12.4339 5.70327 12.4937 5.62125C12.545 5.55375 12.5969 5.48687 12.6425 5.41437C12.6881 5.34187 12.7244 5.26938 12.7631 5.195C12.7875 5.14875 12.8162 5.10563 12.8381 5.05813C13.863 5.58343 14.7236 6.38074 15.3254 7.36269C15.9272 8.34463 16.2471 9.47331 16.25 10.625C16.2499 10.8337 16.2392 11.0423 16.2181 11.25C16.145 11.25 16.0725 11.26 15.9994 11.2656C15.9531 11.2656 15.9062 11.2694 15.86 11.275C15.7218 11.2917 15.5848 11.3175 15.45 11.3525L15.4019 11.365C15.2675 11.403 15.136 11.4502 15.0081 11.5063C14.9581 11.5275 14.9119 11.5538 14.8637 11.5775C14.7787 11.6194 14.6956 11.6637 14.6137 11.7131C14.5625 11.7444 14.5137 11.7787 14.4644 11.8131C14.3894 11.8656 14.3175 11.9213 14.2469 11.98C14.2019 12.0181 14.1575 12.0556 14.1144 12.0969C14.0416 12.1663 13.9723 12.2393 13.9069 12.3156C13.8731 12.3538 13.8381 12.3894 13.8062 12.4294C13.7101 12.5502 13.6228 12.6778 13.545 12.8112C13.4708 12.9411 13.4063 13.0763 13.3519 13.2156C13.3344 13.2594 13.3212 13.3044 13.3056 13.3488C13.272 13.4435 13.2433 13.5399 13.2194 13.6375C13.2062 13.6906 13.1962 13.7438 13.1862 13.7975C13.1694 13.8888 13.1562 13.9794 13.1475 14.0713C13.1419 14.1275 13.1369 14.1831 13.1344 14.24C13.13 14.3319 13.1344 14.4238 13.1344 14.515C13.1344 14.5694 13.1344 14.6231 13.1419 14.6775C13.1539 14.7983 13.1731 14.9183 13.1994 15.0369C13.2137 15.105 13.2344 15.1719 13.2537 15.2394C13.2781 15.3244 13.3025 15.4094 13.3344 15.4894C13.3587 15.5519 13.3887 15.6144 13.4175 15.6769C13.4387 15.7231 13.4556 15.7706 13.48 15.8163C12.4524 16.5101 11.2399 16.879 10 16.875V16.875ZM17.875 15.3125C17.7519 15.5259 17.5878 15.7129 17.3923 15.8627C17.1967 16.0126 16.9735 16.1223 16.7354 16.1857C16.4973 16.249 16.249 16.2647 16.0049 16.2319C15.7607 16.1991 15.5254 16.1184 15.3125 15.9944C15.1203 15.8842 14.9507 15.7388 14.8125 15.5656C14.5158 15.2141 14.3609 14.7646 14.378 14.3049C14.3951 13.8453 14.583 13.4085 14.905 13.08C14.9225 13.0619 14.9394 13.0425 14.9575 13.0244C15.06 12.9251 15.1736 12.838 15.2962 12.765C15.3125 12.755 15.33 12.7469 15.3469 12.7375C15.616 12.5885 15.918 12.509 16.2256 12.5063H16.2569C16.3881 12.5071 16.519 12.5209 16.6475 12.5475C16.8393 12.5846 17.0233 12.6546 17.1912 12.7544C17.4042 12.8773 17.5909 13.0411 17.7405 13.2362C17.8902 13.4314 17.9999 13.6541 18.0634 13.8917C18.1269 14.1293 18.1429 14.3771 18.1106 14.6209C18.0783 14.8646 17.9982 15.0997 17.875 15.3125V15.3125Z" fill="white"/>
</svg>
