<svg width="24" height="25" viewBox="0 0 24 25" fill="none" xmlns="http://www.w3.org/2000/svg">
<path fill-rule="evenodd" clip-rule="evenodd" d="M14.738 20.7161C14.8186 20.7185 14.8994 20.7197 14.9806 20.7197C19.3989 20.7197 22.9806 17.138 22.9806 12.7197C22.9806 8.30139 19.3989 4.71967 14.9806 4.71967C12.4542 4.71967 10.2013 5.89075 8.73522 7.71967H7.51941C3.92956 7.71967 1.01941 10.6298 1.01941 14.2197C1.01941 17.8096 3.92956 20.7197 7.51941 20.7197H14.5194C14.5926 20.7197 14.6654 20.7185 14.738 20.7161ZM16.6913 18.4407C19.0415 17.6719 20.9806 15.4012 20.9806 12.7197C20.9806 9.40596 18.2943 6.71967 14.9806 6.71967C11.6669 6.71967 8.98059 9.40596 8.98059 12.7197H6.98059C6.98059 11.6588 7.1871 10.6461 7.56211 9.71967H7.51941C5.03413 9.71967 3.01941 11.7344 3.01941 14.2197C3.01941 16.705 5.03413 18.7197 7.51941 18.7197H14.5194C15.0691 18.7197 15.9041 18.6211 16.6913 18.4407Z" fill="#EAEDF3" fill-opacity="0.8"/>
</svg>
