<svg width="18" height="18" viewBox="0 0 18 18" fill="none" xmlns="http://www.w3.org/2000/svg">
    <g clip-path="url(#clip0)">
        <path d="M17.4375 6.75H0.5625C0.252 6.75 0 6.498 0 6.1875V2.0625C0 0.92475 0.92475 0 2.0625 0H15.9375C17.0753 0 18 0.92475 18 2.0625V6.1875C18 6.498 17.748 6.75 17.4375 6.75ZM1.125 5.625H16.875V2.0625C16.875 1.54575 16.4543 1.125 15.9375 1.125H2.0625C1.54575 1.125 1.125 1.54575 1.125 2.0625V5.625Z" fill="white"/>
        <path d="M17.4375 12.375H0.5625C0.252 12.375 0 12.123 0 11.8125V6.1875C0 5.877 0.252 5.625 0.5625 5.625H17.4375C17.748 5.625 18 5.877 18 6.1875V11.8125C18 12.123 17.748 12.375 17.4375 12.375ZM1.125 11.25H16.875V6.75H1.125V11.25Z" fill="white"/>
        <path d="M15.9375 18H2.0625C0.92475 18 0 17.0753 0 15.9375V11.8125C0 11.502 0.252 11.25 0.5625 11.25H17.4375C17.748 11.25 18 11.502 18 11.8125V15.9375C18 17.0753 17.0753 18 15.9375 18ZM1.125 12.375V15.9375C1.125 16.4542 1.54575 16.875 2.0625 16.875H15.9375C16.4543 16.875 16.875 16.4542 16.875 15.9375V12.375H1.125Z" fill="white"/>
        <path d="M15 15.75C15.4142 15.75 15.75 15.4142 15.75 15C15.75 14.5858 15.4142 14.25 15 14.25C14.5858 14.25 14.25 14.5858 14.25 15C14.25 15.4142 14.5858 15.75 15 15.75Z" fill="white"/>
        <path d="M12 15.75C12.4142 15.75 12.75 15.4142 12.75 15C12.75 14.5858 12.4142 14.25 12 14.25C11.5858 14.25 11.25 14.5858 11.25 15C11.25 15.4142 11.5858 15.75 12 15.75Z" fill="white"/>
        <path d="M9.00001 15.75C9.41422 15.75 9.75001 15.4142 9.75001 15C9.75001 14.5858 9.41422 14.25 9.00001 14.25C8.58579 14.25 8.25 14.5858 8.25 15C8.25 15.4142 8.58579 15.75 9.00001 15.75Z" fill="white"/>
        <path d="M15 9.75C15.4142 9.75 15.75 9.41421 15.75 8.99999C15.75 8.58577 15.4142 8.24998 15 8.24998C14.5858 8.24998 14.25 8.58577 14.25 8.99999C14.25 9.41421 14.5858 9.75 15 9.75Z" fill="white"/>
        <path d="M12 9.75C12.4142 9.75 12.75 9.41421 12.75 8.99999C12.75 8.58577 12.4142 8.24998 12 8.24998C11.5858 8.24998 11.25 8.58577 11.25 8.99999C11.25 9.41421 11.5858 9.75 12 9.75Z" fill="white"/>
        <path d="M9.00001 9.75C9.41422 9.75 9.75001 9.41421 9.75001 8.99999C9.75001 8.58577 9.41422 8.24998 9.00001 8.24998C8.58579 8.24998 8.25 8.58577 8.25 8.99999C8.25 9.41421 8.58579 9.75 9.00001 9.75Z" fill="white"/>
        <path d="M15 4.50001C15.4142 4.50001 15.75 4.16423 15.75 3.75001C15.75 3.3358 15.4142 3.00002 15 3.00002C14.5858 3.00002 14.25 3.3358 14.25 3.75001C14.25 4.16423 14.5858 4.50001 15 4.50001Z" fill="white"/>
        <path d="M12 4.50001C12.4142 4.50001 12.75 4.16423 12.75 3.75001C12.75 3.3358 12.4142 3.00002 12 3.00002C11.5858 3.00002 11.25 3.3358 11.25 3.75001C11.25 4.16423 11.5858 4.50001 12 4.50001Z" fill="white"/>
        <path d="M9.00001 4.50001C9.41422 4.50001 9.75001 4.16423 9.75001 3.75001C9.75001 3.3358 9.41422 3.00002 9.00001 3.00002C8.58579 3.00002 8.25 3.3358 8.25 3.75001C8.25 4.16423 8.58579 4.50001 9.00001 4.50001Z" fill="white"/>
    </g>
    <defs>
        <clipPath id="clip0">
            <rect width="18" height="18" fill="white"/>
        </clipPath>
    </defs>
</svg>
