<svg width="20" height="20" xmlns="http://www.w3.org/2000/svg" xmlns:xlink="http://www.w3.org/1999/xlink" viewBox="0 0 24 24" fill="#FFFFFF">
  <path d="M12 5 A 3 3 0 0 0 9 8 A 3 3 0 0 0 12 11 A 3 3 0 0 0 15 8 A 3 3 0 0 0 12 5 z M 5 7 A 2 2 0 0 0 3 9 A 2 2 0 0 0 5 11 A 2 2 0 0 0 7 9 A 2 2 0 0 0 5 7 z M 19 7 A 2 2 0 0 0 17 9 A 2 2 0 0 0 19 11 A 2 2 0 0 0 21 9 A 2 2 0 0 0 19 7 z M 12 13C8.468 13 6 14.322797 6 16.216797L6 18C6 18.552 6.448 19 7 19L17 19C17.552 19 18 18.552 18 18L18 16.216797C18 14.322797 15.532 13 12 13 z M 4.5800781 13.011719C2.5875391 13.120027 1 13.993547 1 15.216797L1 16C1 16.552 1.448 17 2 17L4 17L4 16.216797C4 14.961797 4.5269844 13.877438 5.4589844 13.023438C5.4559844 13.015438 5.4580781 13.021672 5.4550781 13.013672C5.1573281 12.996672 4.8647266 12.996246 4.5800781 13.011719 z M 19.419922 13.011719C19.135273 12.996246 18.842672 12.996672 18.544922 13.013672C18.541922 13.021672 18.544016 13.015438 18.541016 13.023438C19.473016 13.877438 20 14.962797 20 16.216797L20 17L22 17C22.552 17 23 16.552 23 16L23 15.216797C23 13.993547 21.412461 13.120027 19.419922 13.011719 z" fill="#FFFFFF" />
</svg>
