<svg width="24" height="25" viewBox="0 0 24 25" fill="none" xmlns="http://www.w3.org/2000/svg">
<path d="M5 9.71967V7.71967H7V9.71967H5Z" fill="#EAEDF3" fill-opacity="0.8"/>
<path d="M9 9.71967H19V7.71967H9V9.71967Z" fill="#EAEDF3" fill-opacity="0.8"/>
<path d="M5 15.7197V17.7197H7V15.7197H5Z" fill="#EAEDF3" fill-opacity="0.8"/>
<path d="M19 17.7197H9V15.7197H19V17.7197Z" fill="#EAEDF3" fill-opacity="0.8"/>
<path fill-rule="evenodd" clip-rule="evenodd" d="M1 6.71967C1 5.06282 2.34315 3.71967 4 3.71967H20C21.6569 3.71967 23 5.06282 23 6.71967V18.7197C23 20.3766 21.6569 21.7197 20 21.7197H4C2.34315 21.7197 1 20.3766 1 18.7197V6.71967ZM4 5.71967H20C20.5523 5.71967 21 6.16739 21 6.71967V11.7197H3V6.71967C3 6.16739 3.44772 5.71967 4 5.71967ZM3 13.7197V18.7197C3 19.272 3.44772 19.7197 4 19.7197H20C20.5523 19.7197 21 19.272 21 18.7197V13.7197H3Z" fill="#EAEDF3" fill-opacity="0.8"/>
</svg>
